<?xml version="1.0" encoding="UTF-8"?><svg xmlns="http://www.w3.org/2000/svg" viewBox="0 0 1162.2 147.89"><defs><style>.d,.e{fill:#fff;}.f,.g{fill:#e30613;}.g,.e{fill-rule:evenodd;}</style></defs><g id="a"/><g id="b"><g id="c"><g><g><path class="e" d="M1115.27,95.88l10.33-48.62h36.6l-1.96,9.32h-23.23l-2.16,10.13h21.88l-2.03,9.32h-21.88l-2.16,10.4h23.77l-2.02,9.45h-37.14Zm-36.39-18.77h13.24l-1.96-20.46h-.21l-11.07,20.46Zm-23.97,18.77l29.58-48.76h16.47l8.91,48.76h-15.26l-1.28-9.79h-19.52l-5.4,9.79h-13.51Zm-22.9-39.78l-2.5,11.96h5.06c2.88,0,4.77-.14,5.67-.41,2.57-.76,4.14-2.61,4.73-5.53,.14-.63,.21-1.2,.21-1.69,0-1.89-.9-3.15-2.7-3.78-1.08-.36-2.88-.54-5.4-.54h-5.07Zm-22.02,39.78l10.33-48.76h22.56c3.87,0,6.44,.09,7.7,.27,3.06,.45,5.24,1.53,6.55,3.24,1.22,1.53,1.82,3.44,1.82,5.74,0,1.17-.13,2.41-.4,3.71-.9,4.19-3.04,7.2-6.42,9.05-2.2,1.22-4.86,2.05-7.97,2.5l-.07,.27c3.51,.09,5.9,.79,7.16,2.09,1.08,1.08,1.62,2.91,1.62,5.47,0,.85-.07,2.32-.2,4.39-.4,6.03-.5,10.04-.27,12.02h-14.65c-.09-1.8,.16-5.47,.74-11.01,.18-1.94,.27-3.26,.27-3.98,0-1.49-.37-2.53-1.11-3.14-.74-.61-2.2-.91-4.35-.91h-5.67l-4.05,19.04h-13.57Zm-31.53-20.46l-2.43,11.55h7.5c4.64,0,7.36-1.89,8.17-5.67,.13-.58,.2-1.12,.2-1.62,0-2.84-2.11-4.26-6.35-4.26h-7.09Zm4.12-19.45l-2.3,10.8h6.35c2.39,0,4.01-.2,4.86-.61,1.89-.94,3.06-2.52,3.51-4.73,.4-1.89,.09-3.33-.94-4.32-.81-.77-2.18-1.15-4.12-1.15h-7.36Zm-21.61,39.91l10.33-48.76h19.52c4.14,0,7.13,.16,8.98,.47,3.11,.59,5.47,1.76,7.09,3.51,1.48,1.62,2.23,3.58,2.23,5.87,0,.81-.09,1.64-.27,2.5-1.22,5.62-5.47,9.32-12.76,11.07l-.07,.13c6.35,1.17,9.52,4.19,9.52,9.05,0,3.06-.85,5.84-2.56,8.34-1.71,2.5-4,4.42-6.86,5.77-2.86,1.35-7.39,2.03-13.61,2.03h-21.54Zm-44.5,0l10.33-48.62h36.6l-1.96,9.32h-23.23l-2.16,10.13h21.88l-2.03,9.32h-21.88l-2.16,10.4h23.77l-2.03,9.45h-37.14Zm-47.27-15.53h13.57c-.18,.9-.27,1.64-.27,2.23,0,3.56,2.29,5.34,6.89,5.34s7.63-1.85,8.44-5.54c.09-.45,.14-.88,.14-1.28,0-1.67-1.13-2.81-3.38-3.44l-11.28-3.11c-6.39-1.76-9.59-5.15-9.59-10.19,0-.99,.11-2.05,.34-3.18,.94-4.32,3.31-7.85,7.09-10.6,4.27-3.11,9.84-4.66,16.68-4.66,11.44,0,17.16,3.69,17.16,11.07,0,1.22-.18,2.7-.54,4.46h-13.71c.22-.9,.34-1.67,.34-2.3,0-2.97-1.76-4.46-5.27-4.46-1.94,0-3.6,.49-5,1.45-1.4,.97-2.23,2.19-2.5,3.68-.09,.4-.13,.79-.13,1.15,0,1.84,1.32,3.13,3.98,3.85l8.58,2.36c3.74,1.03,6.35,2.07,7.83,3.11,2.52,1.71,3.79,4.18,3.79,7.43,0,1.08-.14,2.25-.41,3.51-1.08,5.22-3.99,9.2-8.71,11.95-4.32,2.52-9.7,3.78-16.14,3.78-8.33,0-13.82-1.94-16.48-5.81-1.26-1.8-1.89-4.01-1.89-6.62,0-1.08,.16-2.48,.48-4.19Z"/><polygon class="e" points="976.19 23.56 1067.01 23.56 1063.69 39.28 972.87 39.28 976.19 23.56"/><polygon class="e" points="981.1 0 1071.93 0 1068.58 15.72 977.76 15.72 981.1 0"/><polygon class="e" points="954.42 127.28 1045.25 127.28 1041.93 142.99 951.1 142.99 954.42 127.28"/><polygon class="e" points="959.34 103.72 1050.16 103.72 1046.82 119.43 956 119.43 959.34 103.72"/></g><g><g><rect class="f" x="569.36" y="35.69" width="269.72" height="69.35"/><path class="e" d="M569.36,93.18h14.59v1.82h-14.59v-1.82h0Zm0-11.68h14.59v1.82h-14.59v-1.82h0Zm0-12.11h14.59v1.82h-14.59v-1.82h0Zm0-11.95h14.59v1.83h-14.59v-1.83h0Zm0-11.64h14.59v1.82h-14.59v-1.82Z"/><path class="e" d="M824.53,93.18h14.59v1.82h-14.59v-1.82h0Zm0-11.68h14.59v1.82h-14.59v-1.82h0Zm0-12.11h14.59v1.82h-14.59v-1.82h0Zm0-11.95h14.59v1.83h-14.59v-1.83h0Zm0-11.64h14.59v1.82h-14.59v-1.82Z"/><path class="e" d="M634.92,60.23c3.32-11.84-6.32-15.44-16.45-15.44s-21.16,3.2-24.17,14.83c-1.12,5.31,.36,9.8,4.86,11.97,9.68,4.69,20.06,3.27,18.64,9.93-.69,3.27-5.05,4.9-8.19,4.9-4.9,0-7.76-2.52-6.71-7.14h-13.61c-2.63,13.33,6.74,16.68,18.16,16.68s22.61-4.91,24.81-15.25c2.81-13.27-8.98-14.08-16.77-16.19-3.4-.95-7.51-2.11-6.75-5.71,.52-2.45,3.67-4.49,6.8-4.49,2.31,0,3.97,.54,4.91,1.56,1.01,1.02,1.32,2.45,.85,4.35h13.61Zm39.36,34.7h-37.42l10.44-49.12h37.42l-2.03,9.52h-23.81l-2.15,10.14h21.91l-2.02,9.52h-21.91l-2.21,10.41h23.81l-2.03,9.52h0Zm7.69,0h12.25l7.99-37.62h.14l8.67,37.62h18.84l10.44-49.12h-12.25l-7.76,36.46-.16,.14-8.69-36.6h-19.05l-10.44,49.12h0Zm66.53,0h-13.61l29.83-49.12h16.6l8.95,49.12h-15.38l-1.22-9.59h-19.93l-5.24,9.59h0Zm10.73-19.12h13.13l-1.92-20.41h-.2l-11.01,20.41h0Zm49.82,19.12h0l10.44-49.12h-13.61l-10.44,49.12h13.61Z"/></g><g><polygon class="g" points="548.71 33.48 278.74 33.48 278.74 105.45 548.71 105.45 548.71 33.48 548.71 33.48"/><path class="e" d="M351.4,59.92c2.98-12.92-8.45-17.2-20.77-17.2-16,.2-26.64,9.44-30.32,26.64-3.68,17.2,2.78,26.74,18.79,26.74,12.42,0,25.75-4.47,28.33-17.4h-14.91c-1.39,4.87-5.37,7.45-11.33,7.45-7.95,0-7.75-8.75-6.06-16.2,1.59-7.65,5.17-17.3,13.32-17.3,5.87,0,8.75,2.68,8.05,7.26h14.91Z"/><polygon class="e" points="366.21 95.11 377.25 43.82 363.13 43.82 352 95.11 366.21 95.11 366.21 95.11"/><polygon class="e" points="415.02 95.11 417.1 85.17 392.36 85.17 394.64 74.23 417.5 74.23 419.69 64.39 396.83 64.39 399.11 53.76 423.87 53.76 426.05 43.82 386.99 43.82 375.96 95.11 415.02 95.11 415.02 95.11"/><path class="e" d="M472.97,58.92c3.58-12.43-6.46-16.2-17.1-16.2s-22.07,3.38-25.25,15.51c-1.19,5.57,.4,10.24,5.07,12.52,10.04,4.87,20.87,3.38,19.38,10.34-.7,3.38-5.27,5.07-8.55,5.07-5.07,0-8.05-2.58-6.96-7.45h-14.21c-2.78,13.92,6.96,17.4,18.89,17.4s23.66-5.07,25.94-15.91c2.98-13.82-9.34-14.61-17.49-16.8-3.48-1-7.76-2.29-6.96-5.97,.5-2.58,3.88-4.77,7.06-4.77,2.48,0,4.17,.6,5.17,1.69,1,1.09,1.39,2.58,.9,4.57h14.11Z"/><path class="e" d="M489.86,95.11l3.88-18.39h9.44c12.52,0,21.57-3.98,24.25-16.4,2.68-12.43-4.67-16.5-17.19-16.5h-23.56l-11.03,51.29h14.21Zm6.06-28.23l2.78-13.12h7.36c5.57,.2,7.35,2.78,6.46,6.56-.79,3.78-3.68,6.26-9.34,6.56h-7.26Z"/><path class="e" d="M533.9,92.03h14.81v1.89h-14.81v-1.89h0Zm0-11.83h14.81v1.79h-14.81v-1.79h0Zm0-12.33h14.81v1.89h-14.81v-1.89h0Zm0-12.13h14.81v1.79h-14.81v-1.79h0Zm0-11.83h14.81v1.79h-14.81v-1.79h0Z"/><path class="e" d="M278.74,92.03h14.81v1.89h-14.81v-1.89h0Zm0-11.83h14.81v1.79h-14.81v-1.79h0Zm0-12.33h14.81v1.89h-14.81v-1.89h0Zm0-12.13h14.81v1.79h-14.81v-1.79h0Zm0-11.83h14.81v1.79h-14.81v-1.79h0Z"/></g><g><polygon class="g" points="257.22 33.48 0 33.48 0 105.28 257.22 105.28 257.22 33.48 257.22 33.48"/><path class="e" d="M34.64,94.87h-14.15l10.82-51.07h36.15l-2.05,9.9h-22l-2.55,11.88h20.45l-2.12,9.9h-20.45l-4.1,19.38h0Zm28.79,0l10.82-51.07h14.15l-10.82,51.07h-14.15Zm23.7,0l10.82-51.07h38.91l-2.05,9.9h-24.76l-2.26,10.54h22.78l-2.12,9.9h-22.78l-2.27,10.82h24.76l-2.12,9.9h-38.91Zm82.06-36.01c.14-.67,.21-1.28,.21-1.86,0-1.1-.43-2.1-1.27-3.01-.85-.91-2.48-1.35-4.88-1.35-1.65,0-3.17,.46-4.56,1.38-1.39,.92-2.17,1.75-2.33,2.48-.17,.73-.25,1.29-.25,1.66,0,1.6,.75,2.74,2.26,3.4,1.51,.66,3.42,1.3,5.73,1.91,2.31,.61,4.93,1.3,7.85,2.05,6.04,2.03,9.05,5.59,9.05,10.68,0,1.18-.34,3.41-1.02,6.69-.68,3.28-3.46,6.27-8.31,8.99-4.86,2.71-10.47,4.07-16.84,4.07-5.89,0-10.59-.97-14.08-2.9-3.49-1.94-5.24-5.26-5.24-9.98,0-1.32,.14-2.8,.42-4.45h14.15c-.14,.71-.21,1.34-.21,1.91,0,1.79,.64,3.16,1.91,4.1,1.27,.94,3.04,1.42,5.31,1.42,1.79,0,3.57-.46,5.34-1.38,1.77-.92,2.76-1.91,2.97-2.97,.21-1.06,.32-1.71,.32-1.95,0-2.27-2.63-4.04-7.89-5.34-5.26-1.3-8.96-2.47-11.11-3.5-2.15-1.04-3.68-2.35-4.6-3.93-.92-1.58-1.38-3.41-1.38-5.48,0-.66,.02-1.17,.07-1.52,.05-.35,.14-.96,.28-1.81,1.46-5.56,4.49-9.53,9.09-11.88,4.6-2.36,9.96-3.54,16.09-3.54,5.09,0,9.33,.91,12.7,2.73,3.37,1.83,5.06,4.75,5.06,8.77,0,1.47-.24,3.01-.71,4.62h-14.15Zm16.48,36.01l10.82-51.07h23.49c5.8,0,10.21,.9,13.23,2.69,3.02,1.79,4.53,4.81,4.53,9.05,0,1.51-.39,4.13-1.17,7.85-.78,3.72-3.23,6.86-7.36,9.41-4.13,2.55-9.51,3.82-16.16,3.82h-9.34l-3.89,18.25h-14.15Zm27.45-28.15c2.69,0,4.8-.59,6.33-1.77,1.53-1.18,2.44-2.41,2.72-3.68,.28-1.27,.42-2.17,.42-2.69,0-1.56-.54-2.76-1.63-3.61-1.09-.85-2.78-1.27-5.09-1.27h-7.29l-2.76,13.02h7.29Z"/><path class="e" d="M0,93.03H15.11v1.89H0v-1.89H0Zm0-12.1H15.11v1.89H0v-1.89H0Zm0-12.55H15.11v1.89H0v-1.89H0Zm0-12.38H15.11v1.89H0v-1.89H0Zm0-12.06H15.11v1.89H0v-1.89H0Z"/><path class="e" d="M243.4,93.03h13.82v1.89h-13.82v-1.89h0Zm0-12.1h13.82v1.89h-13.82v-1.89h0Zm0-12.55h13.82v1.89h-13.82v-1.89h0Zm0-12.38h13.82v1.89h-13.82v-1.89h0Zm0-12.06h13.82v1.89h-13.82v-1.89h0Z"/></g></g><g><g><path class="d" d="M187.88,124.05h6.52v23.4h-6.52v-23.4Z"/><path class="d" d="M198.31,129.36h6.35v2.54c1.17-1.5,2.84-2.94,5.41-2.94,3.84,0,6.15,2.54,6.15,6.65v11.84h-6.35v-9.8c0-1.97-1.03-3.04-2.54-3.04s-2.67,1.07-2.67,3.04v9.8h-6.35v-18.09Z"/><path class="d" d="M218.85,138.49v-.07c0-5.88,3.68-9.46,7.96-9.46,2.74,0,4.35,1.24,5.55,2.61v-8.53h6.35v24.41h-6.35v-2.41c-1.24,1.51-2.81,2.81-5.52,2.81-4.28,0-7.99-3.58-7.99-9.36Zm13.61-.07v-.07c0-2.37-1.64-4.08-3.68-4.08s-3.71,1.67-3.71,4.08v.07c0,2.41,1.67,4.11,3.71,4.11s3.68-1.71,3.68-4.11Z"/><path class="d" d="M242,141.2v-11.84h6.35v9.8c0,1.97,1.04,3.04,2.57,3.04s2.64-1.07,2.64-3.04v-9.8h6.35v18.09h-6.35v-2.47c-1.17,1.5-2.84,2.88-5.42,2.88-3.84,0-6.15-2.54-6.15-6.65Zm10-19.56l5.88,1.91-4.95,4.24h-4.41l3.48-6.15Z"/><path class="d" d="M261.97,145.18l2.38-3.84c2.07,1.37,4.34,2.07,6.22,2.07,1.1,0,1.6-.33,1.6-.97v-.07c0-.7-1-1-2.91-1.54-3.58-.94-6.42-2.14-6.42-5.78v-.07c0-3.84,3.07-5.98,7.25-5.98,2.64,0,5.38,.77,7.46,2.11l-2.17,4.01c-1.87-1.04-3.91-1.67-5.35-1.67-.97,0-1.47,.37-1.47,.87v.07c0,.7,1.04,1.03,2.94,1.6,3.58,1,6.42,2.24,6.42,5.75v.07c0,3.98-2.97,6.05-7.39,6.05-3.04,0-6.05-.87-8.56-2.67Z"/><path class="d" d="M281.33,141.83v-7.35h-2.14v-5.12h2.14v-4.58h6.35v4.58h4.21v5.12h-4.21v6.12c0,1.27,.57,1.81,1.74,1.81,.84,0,1.64-.23,2.41-.6v4.98c-1.14,.64-2.64,1.03-4.41,1.03-3.81,0-6.08-1.67-6.08-5.98Z"/><path class="d" d="M294.65,129.36h6.35v3.64c1.04-2.47,2.71-4.08,5.72-3.95v6.69h-.53c-3.31,0-5.18,1.9-5.18,6.08v5.62h-6.35v-18.09Z"/><path class="d" d="M308.96,123.05h6.62v4.68h-6.62v-4.68Zm.13,6.32h6.35v18.09h-6.35v-18.09Z"/><path class="d" d="M318.09,142.27v-.07c0-3.74,2.84-5.68,7.09-5.68,1.67,0,3.31,.33,4.35,.7v-.3c0-1.87-1.17-2.94-3.61-2.94-1.91,0-3.38,.37-4.98,1l-1.3-4.48c2.04-.84,4.21-1.41,7.32-1.41s5.45,.77,6.89,2.21c1.37,1.34,1.94,3.21,1.94,5.75v10.4h-6.29v-1.87c-1.24,1.37-2.94,2.27-5.31,2.27-3.45,0-6.09-1.97-6.09-5.58Zm11.5-1.37v-.84c-.64-.27-1.54-.47-2.47-.47-1.84,0-2.91,.9-2.91,2.24v.07c0,1.24,.94,1.97,2.24,1.97,1.84,0,3.14-1.17,3.14-2.98Z"/><path class="d" d="M348.67,124.05h18.72v5.68h-12.24v3.98h11.07v5.38h-11.07v8.36h-6.49v-23.4Z"/><path class="d" d="M368.94,138.49v-.07c0-5.15,4.21-9.46,10.03-9.46s9.96,4.25,9.96,9.4v.07c0,5.15-4.21,9.46-10.03,9.46s-9.96-4.25-9.96-9.4Zm13.81,0v-.07c0-2.21-1.6-4.08-3.84-4.08s-3.78,1.84-3.78,4.01v.07c0,2.21,1.6,4.08,3.84,4.08s3.78-1.84,3.78-4.01Z"/><path class="d" d="M391.61,129.36h6.35v3.64c1.04-2.47,2.71-4.08,5.72-3.95v6.69h-.53c-3.31,0-5.18,1.9-5.18,6.08v5.62h-6.35v-18.09Z"/><path class="d" d="M407.03,141.83v-7.35h-2.14v-5.12h2.14v-4.58h6.35v4.58h4.21v5.12h-4.21v6.12c0,1.27,.57,1.81,1.74,1.81,.84,0,1.64-.23,2.41-.6v4.98c-1.14,.64-2.64,1.03-4.41,1.03-3.81,0-6.08-1.67-6.08-5.98Z"/><path class="d" d="M419.14,138.49v-.07c0-5.28,3.78-9.46,9.13-9.46,6.25,0,9.13,4.58,9.13,9.9,0,.4,0,.87-.03,1.3h-12.1c.5,1.97,1.94,2.98,3.91,2.98,1.5,0,2.71-.57,4.01-1.84l3.51,2.91c-1.74,2.21-4.24,3.68-7.86,3.68-5.68,0-9.7-3.78-9.7-9.4Zm12.3-1.57c-.23-2.01-1.4-3.28-3.14-3.28s-2.81,1.3-3.14,3.28h6.28Z"/><path class="d" d="M485,124.05h10.03c5.92,0,9.73,3.04,9.73,8.22v.07c0,5.52-4.25,8.42-10.06,8.42h-3.21v6.69h-6.49v-23.4Zm9.56,11.64c2.31,0,3.71-1.2,3.71-3.04v-.07c0-2.01-1.4-3.08-3.74-3.08h-3.04v6.19h3.08Z"/><path class="d" d="M506.24,142.27v-.07c0-3.74,2.84-5.68,7.09-5.68,1.67,0,3.31,.33,4.34,.7v-.3c0-1.87-1.17-2.94-3.61-2.94-1.9,0-3.38,.37-4.98,1l-1.3-4.48c2.04-.84,4.21-1.41,7.32-1.41s5.45,.77,6.89,2.21c1.37,1.34,1.94,3.21,1.94,5.75v10.4h-6.29v-1.87c-1.24,1.37-2.94,2.27-5.32,2.27-3.44,0-6.09-1.97-6.09-5.58Zm11.5-1.37v-.84c-.64-.27-1.54-.47-2.47-.47-1.84,0-2.91,.9-2.91,2.24v.07c0,1.24,.94,1.97,2.24,1.97,1.84,0,3.14-1.17,3.14-2.98Z"/><path class="d" d="M527.31,129.36h6.35v18.09h-6.35v-18.09Zm4.25-7.72l5.88,1.91-4.95,4.24h-4.41l3.48-6.15Z"/><path class="d" d="M535.88,145.18l2.37-3.84c2.07,1.37,4.35,2.07,6.22,2.07,1.1,0,1.6-.33,1.6-.97v-.07c0-.7-1-1-2.91-1.54-3.58-.94-6.42-2.14-6.42-5.78v-.07c0-3.84,3.08-5.98,7.26-5.98,2.64,0,5.38,.77,7.46,2.11l-2.17,4.01c-1.87-1.04-3.91-1.67-5.35-1.67-.97,0-1.47,.37-1.47,.87v.07c0,.7,1.04,1.03,2.94,1.6,3.58,1,6.42,2.24,6.42,5.75v.07c0,3.98-2.98,6.05-7.39,6.05-3.04,0-6.05-.87-8.56-2.67Z"/><path class="d" d="M564.08,124.05h18.72v5.68h-12.24v3.98h11.07v5.38h-11.07v8.36h-6.48v-23.4Z"/><path class="d" d="M584.34,138.49v-.07c0-5.15,4.21-9.46,10.03-9.46s9.96,4.25,9.96,9.4v.07c0,5.15-4.21,9.46-10.03,9.46s-9.96-4.25-9.96-9.4Zm13.81,0v-.07c0-2.21-1.6-4.08-3.84-4.08s-3.78,1.84-3.78,4.01v.07c0,2.21,1.6,4.08,3.84,4.08s3.78-1.84,3.78-4.01Z"/><path class="d" d="M607.02,129.36h6.35v3.64c1.03-2.47,2.71-4.08,5.72-3.95v6.69h-.53c-3.31,0-5.18,1.9-5.18,6.08v5.62h-6.35v-18.09Z"/><path class="d" d="M622.44,141.83v-7.35h-2.14v-5.12h2.14v-4.58h6.35v4.58h4.21v5.12h-4.21v6.12c0,1.27,.57,1.81,1.74,1.81,.83,0,1.64-.23,2.41-.6v4.98c-1.14,.64-2.64,1.03-4.41,1.03-3.81,0-6.09-1.67-6.09-5.98Z"/><path class="d" d="M634.55,138.49v-.07c0-5.28,3.78-9.46,9.13-9.46,6.25,0,9.13,4.58,9.13,9.9,0,.4,0,.87-.03,1.3h-12.1c.5,1.97,1.94,2.98,3.91,2.98,1.5,0,2.71-.57,4.01-1.84l3.51,2.91c-1.74,2.21-4.24,3.68-7.86,3.68-5.68,0-9.7-3.78-9.7-9.4Zm12.3-1.57c-.23-2.01-1.4-3.28-3.14-3.28s-2.81,1.3-3.14,3.28h6.28Z"/></g><g><polygon class="f" points="466.51 126.16 459.26 126.16 467.12 136.69 459.26 147.23 466.51 147.23 474.37 136.69 466.51 126.16"/><polygon class="f" points="454.85 126.16 447.6 126.16 455.46 136.69 447.6 147.23 454.85 147.23 462.71 136.69 454.85 126.16"/></g></g></g></g></g></svg>